<?xml version="1.0" encoding="utf-8" standalone="no"?>
<!DOCTYPE svg PUBLIC "-//W3C//DTD SVG 1.1//EN"
  "http://www.w3.org/Graphics/SVG/1.1/DTD/svg11.dtd">
<svg xmlns:xlink="http://www.w3.org/1999/xlink" width="495.570312pt" height="353.405547pt" viewBox="0 0 495.570312 353.405547" xmlns="http://www.w3.org/2000/svg" version="1.1">
 <metadata>
  <rdf:RDF xmlns:dc="http://purl.org/dc/elements/1.1/" xmlns:cc="http://creativecommons.org/ns#" xmlns:rdf="http://www.w3.org/1999/02/22-rdf-syntax-ns#">
   <cc:Work>
    <dc:type rdf:resource="http://purl.org/dc/dcmitype/StillImage"/>
    <dc:date>2023-07-31T15:50:02.308812</dc:date>
    <dc:format>image/svg+xml</dc:format>
    <dc:creator>
     <cc:Agent>
      <dc:title>Matplotlib v3.7.2, https://matplotlib.org/</dc:title>
     </cc:Agent>
    </dc:creator>
   </cc:Work>
  </rdf:RDF>
 </metadata>
 <defs>
  <style type="text/css">*{stroke-linejoin: round; stroke-linecap: butt}</style>
 </defs>
 <g id="figure_1">
  <g id="patch_1">
   <path d="M 0 353.405547 
L 495.570312 353.405547 
L 495.570312 0 
L 0 0 
z
" style="fill: #ffffff"/>
  </g>
  <g id="axes_1">
   <g id="patch_2">
    <path d="M 72.630313 149.968984 
L 488.370312 149.968984 
L 488.370312 12.138984 
L 72.630313 12.138984 
z
" style="fill: #ffffff"/>
   </g>
   <g id="PolyCollection_1">
    <defs>
     <path id="mf0bdf45af3" d="M 91.527585 -104.986562 
L 91.527585 -258.588252 
L 97.432983 -260.544126 
L 103.338381 -261.430176 
L 109.243778 -262.414676 
L 115.149176 -262.749406 
L 121.054574 -263.943932 
L 126.959972 -264.495252 
L 132.865369 -265.716032 
L 138.770767 -266.162339 
L 144.676165 -266.332986 
L 150.581562 -265.853862 
L 156.48696 -265.794792 
L 162.392358 -264.357422 
L 168.297756 -262.447492 
L 174.203153 -260.550689 
L 180.108551 -260.701646 
L 186.013949 -260.603196 
L 191.919347 -260.491619 
L 197.824744 -260.058439 
L 203.730142 -259.671202 
L 209.63554 -260.130636 
L 215.540937 -260.754152 
L 221.446335 -260.675392 
L 227.351733 -260.530999 
L 233.257131 -260.156889 
L 239.162528 -258.870476 
L 245.067926 -257.459359 
L 250.973324 -255.989172 
L 256.878722 -255.667569 
L 262.784119 -255.352529 
L 268.689517 -254.591182 
L 274.594915 -255.037489 
L 280.500312 -255.214699 
L 286.40571 -256.028552 
L 292.311108 -255.641316 
L 298.216506 -255.792272 
L 304.121903 -256.146692 
L 310.027301 -256.908039 
L 315.932699 -257.584062 
L 321.838097 -257.964736 
L 327.743494 -257.780962 
L 333.648892 -258.319156 
L 339.55429 -257.367472 
L 345.459687 -257.794089 
L 351.365085 -257.702202 
L 357.270483 -259.172389 
L 363.175881 -258.424169 
L 369.081278 -257.623442 
L 374.986676 -256.409226 
L 380.892074 -256.881786 
L 386.797472 -256.277959 
L 392.702869 -255.641316 
L 398.608267 -255.706949 
L 404.513665 -255.405036 
L 410.419062 -255.411599 
L 416.32446 -254.335212 
L 422.229858 -254.689632 
L 428.135256 -255.798836 
L 434.040653 -256.461732 
L 439.946051 -256.238579 
L 445.851449 -255.956356 
L 451.756847 -256.271396 
L 457.662244 -255.871032 
L 463.567642 -255.326276 
L 469.47304 -254.925912 
L 469.47304 -104.986562 
L 469.47304 -104.986562 
L 463.567642 -104.986562 
L 457.662244 -104.986562 
L 451.756847 -104.986562 
L 445.851449 -104.986562 
L 439.946051 -104.986562 
L 434.040653 -104.986562 
L 428.135256 -104.986562 
L 422.229858 -104.986562 
L 416.32446 -104.986562 
L 410.419062 -104.986562 
L 404.513665 -104.986562 
L 398.608267 -104.986562 
L 392.702869 -104.986562 
L 386.797472 -104.986562 
L 380.892074 -104.986562 
L 374.986676 -104.986562 
L 369.081278 -104.986562 
L 363.175881 -104.986562 
L 357.270483 -104.986562 
L 351.365085 -104.986562 
L 345.459687 -104.986562 
L 339.55429 -104.986562 
L 333.648892 -104.986562 
L 327.743494 -104.986562 
L 321.838097 -104.986562 
L 315.932699 -104.986562 
L 310.027301 -104.986562 
L 304.121903 -104.986562 
L 298.216506 -104.986562 
L 292.311108 -104.986562 
L 286.40571 -104.986562 
L 280.500312 -104.986562 
L 274.594915 -104.986562 
L 268.689517 -104.986562 
L 262.784119 -104.986562 
L 256.878722 -104.986562 
L 250.973324 -104.986562 
L 245.067926 -104.986562 
L 239.162528 -104.986562 
L 233.257131 -104.986562 
L 227.351733 -104.986562 
L 221.446335 -104.986562 
L 215.540937 -104.986562 
L 209.63554 -104.986562 
L 203.730142 -104.986562 
L 197.824744 -104.986562 
L 191.919347 -104.986562 
L 186.013949 -104.986562 
L 180.108551 -104.986562 
L 174.203153 -104.986562 
L 168.297756 -104.986562 
L 162.392358 -104.986562 
L 156.48696 -104.986562 
L 150.581562 -104.986562 
L 144.676165 -104.986562 
L 138.770767 -104.986562 
L 132.865369 -104.986562 
L 126.959972 -104.986562 
L 121.054574 -104.986562 
L 115.149176 -104.986562 
L 109.243778 -104.986562 
L 103.338381 -104.986562 
L 97.432983 -104.986562 
L 91.527585 -104.986562 
z
" style="stroke: #ff7f7f; stroke-opacity: 0.1"/>
    </defs>
    <g clip-path="url(#p730a27eb32)">
     <use xlink:href="#mf0bdf45af3" x="0" y="353.405547" style="fill: #ff7f7f; fill-opacity: 0.1; stroke: #ff7f7f; stroke-opacity: 0.1"/>
    </g>
   </g>
   <g id="PolyCollection_2">
    <defs>
     <path id="m749bc20c4e" d="M 91.527585 -104.986562 
L 91.527585 -286.804022 
L 97.432983 -288.904289 
L 103.338381 -288.766459 
L 109.243778 -290.453236 
L 115.149176 -291.109569 
L 121.054574 -291.765902 
L 126.959972 -293.800536 
L 132.865369 -295.874549 
L 138.770767 -297.069076 
L 144.676165 -295.638269 
L 150.581562 -293.505186 
L 156.48696 -292.074379 
L 162.392358 -288.070746 
L 168.297756 -284.480602 
L 174.203153 -281.868396 
L 180.108551 -282.393462 
L 186.013949 -283.351709 
L 191.919347 -283.371399 
L 197.824744 -283.148246 
L 203.730142 -282.550982 
L 209.63554 -283.292639 
L 215.540937 -283.220442 
L 221.446335 -283.568299 
L 227.351733 -283.141682 
L 233.257131 -281.835579 
L 239.162528 -279.183992 
L 245.067926 -276.525842 
L 250.973324 -276.328942 
L 256.878722 -276.046719 
L 262.784119 -277.575976 
L 268.689517 -277.077162 
L 274.594915 -278.028846 
L 280.500312 -277.221556 
L 286.40571 -279.236499 
L 292.311108 -278.829572 
L 298.216506 -279.367766 
L 304.121903 -278.409519 
L 310.027301 -280.693559 
L 315.932699 -282.006226 
L 321.838097 -282.944782 
L 327.743494 -281.323639 
L 333.648892 -280.949529 
L 339.55429 -278.619546 
L 345.459687 -279.912522 
L 351.365085 -280.142239 
L 357.270483 -281.914339 
L 363.175881 -280.431026 
L 369.081278 -280.732939 
L 374.986676 -279.492469 
L 380.892074 -279.177429 
L 386.797472 -276.972149 
L 392.702869 -277.083726 
L 398.608267 -277.543159 
L 404.513665 -276.893389 
L 410.419062 -276.164859 
L 416.32446 -275.042529 
L 422.229858 -277.182176 
L 428.135256 -278.429209 
L 434.040653 -280.096296 
L 439.946051 -278.573602 
L 445.851449 -278.855826 
L 451.756847 -279.479342 
L 457.662244 -278.586729 
L 463.567642 -278.645799 
L 469.47304 -275.626666 
L 469.47304 -104.986562 
L 469.47304 -104.986562 
L 463.567642 -104.986562 
L 457.662244 -104.986562 
L 451.756847 -104.986562 
L 445.851449 -104.986562 
L 439.946051 -104.986562 
L 434.040653 -104.986562 
L 428.135256 -104.986562 
L 422.229858 -104.986562 
L 416.32446 -104.986562 
L 410.419062 -104.986562 
L 404.513665 -104.986562 
L 398.608267 -104.986562 
L 392.702869 -104.986562 
L 386.797472 -104.986562 
L 380.892074 -104.986562 
L 374.986676 -104.986562 
L 369.081278 -104.986562 
L 363.175881 -104.986562 
L 357.270483 -104.986562 
L 351.365085 -104.986562 
L 345.459687 -104.986562 
L 339.55429 -104.986562 
L 333.648892 -104.986562 
L 327.743494 -104.986562 
L 321.838097 -104.986562 
L 315.932699 -104.986562 
L 310.027301 -104.986562 
L 304.121903 -104.986562 
L 298.216506 -104.986562 
L 292.311108 -104.986562 
L 286.40571 -104.986562 
L 280.500312 -104.986562 
L 274.594915 -104.986562 
L 268.689517 -104.986562 
L 262.784119 -104.986562 
L 256.878722 -104.986562 
L 250.973324 -104.986562 
L 245.067926 -104.986562 
L 239.162528 -104.986562 
L 233.257131 -104.986562 
L 227.351733 -104.986562 
L 221.446335 -104.986562 
L 215.540937 -104.986562 
L 209.63554 -104.986562 
L 203.730142 -104.986562 
L 197.824744 -104.986562 
L 191.919347 -104.986562 
L 186.013949 -104.986562 
L 180.108551 -104.986562 
L 174.203153 -104.986562 
L 168.297756 -104.986562 
L 162.392358 -104.986562 
L 156.48696 -104.986562 
L 150.581562 -104.986562 
L 144.676165 -104.986562 
L 138.770767 -104.986562 
L 132.865369 -104.986562 
L 126.959972 -104.986562 
L 121.054574 -104.986562 
L 115.149176 -104.986562 
L 109.243778 -104.986562 
L 103.338381 -104.986562 
L 97.432983 -104.986562 
L 91.527585 -104.986562 
z
" style="stroke: #000000; stroke-opacity: 0.1"/>
    </defs>
    <g clip-path="url(#p730a27eb32)">
     <use xlink:href="#m749bc20c4e" x="0" y="353.405547" style="fill-opacity: 0.1; stroke: #000000; stroke-opacity: 0.1"/>
    </g>
   </g>
   <g id="matplotlib.axis_1">
    <g id="xtick_1">
     <g id="line2d_1">
      <path d="M 79.71679 149.968984 
L 79.71679 12.138984 
" clip-path="url(#p730a27eb32)" style="fill: none; stroke: #b0b0b0; stroke-width: 0.8; stroke-linecap: square"/>
     </g>
     <g id="line2d_2">
      <defs>
       <path id="m607e5f3b20" d="M 0 0 
L 0 3.5 
" style="stroke: #000000; stroke-width: 0.8"/>
      </defs>
      <g>
       <use xlink:href="#m607e5f3b20" x="79.71679" y="149.968984" style="stroke: #000000; stroke-width: 0.8"/>
      </g>
     </g>
    </g>
    <g id="xtick_2">
     <g id="line2d_3">
      <path d="M 138.770767 149.968984 
L 138.770767 12.138984 
" clip-path="url(#p730a27eb32)" style="fill: none; stroke: #b0b0b0; stroke-width: 0.8; stroke-linecap: square"/>
     </g>
     <g id="line2d_4">
      <g>
       <use xlink:href="#m607e5f3b20" x="138.770767" y="149.968984" style="stroke: #000000; stroke-width: 0.8"/>
      </g>
     </g>
    </g>
    <g id="xtick_3">
     <g id="line2d_5">
      <path d="M 197.824744 149.968984 
L 197.824744 12.138984 
" clip-path="url(#p730a27eb32)" style="fill: none; stroke: #b0b0b0; stroke-width: 0.8; stroke-linecap: square"/>
     </g>
     <g id="line2d_6">
      <g>
       <use xlink:href="#m607e5f3b20" x="197.824744" y="149.968984" style="stroke: #000000; stroke-width: 0.8"/>
      </g>
     </g>
    </g>
    <g id="xtick_4">
     <g id="line2d_7">
      <path d="M 256.878722 149.968984 
L 256.878722 12.138984 
" clip-path="url(#p730a27eb32)" style="fill: none; stroke: #b0b0b0; stroke-width: 0.8; stroke-linecap: square"/>
     </g>
     <g id="line2d_8">
      <g>
       <use xlink:href="#m607e5f3b20" x="256.878722" y="149.968984" style="stroke: #000000; stroke-width: 0.8"/>
      </g>
     </g>
    </g>
    <g id="xtick_5">
     <g id="line2d_9">
      <path d="M 315.932699 149.968984 
L 315.932699 12.138984 
" clip-path="url(#p730a27eb32)" style="fill: none; stroke: #b0b0b0; stroke-width: 0.8; stroke-linecap: square"/>
     </g>
     <g id="line2d_10">
      <g>
       <use xlink:href="#m607e5f3b20" x="315.932699" y="149.968984" style="stroke: #000000; stroke-width: 0.8"/>
      </g>
     </g>
    </g>
    <g id="xtick_6">
     <g id="line2d_11">
      <path d="M 374.986676 149.968984 
L 374.986676 12.138984 
" clip-path="url(#p730a27eb32)" style="fill: none; stroke: #b0b0b0; stroke-width: 0.8; stroke-linecap: square"/>
     </g>
     <g id="line2d_12">
      <g>
       <use xlink:href="#m607e5f3b20" x="374.986676" y="149.968984" style="stroke: #000000; stroke-width: 0.8"/>
      </g>
     </g>
    </g>
    <g id="xtick_7">
     <g id="line2d_13">
      <path d="M 434.040653 149.968984 
L 434.040653 12.138984 
" clip-path="url(#p730a27eb32)" style="fill: none; stroke: #b0b0b0; stroke-width: 0.8; stroke-linecap: square"/>
     </g>
     <g id="line2d_14">
      <g>
       <use xlink:href="#m607e5f3b20" x="434.040653" y="149.968984" style="stroke: #000000; stroke-width: 0.8"/>
      </g>
     </g>
    </g>
   </g>
   <g id="matplotlib.axis_2">
    <g id="ytick_1">
     <g id="line2d_15">
      <path d="M 72.630313 130.278984 
L 488.370312 130.278984 
" clip-path="url(#p730a27eb32)" style="fill: none; stroke: #b0b0b0; stroke-width: 0.8; stroke-linecap: square"/>
     </g>
     <g id="line2d_16">
      <defs>
       <path id="ma6a6b888a7" d="M 0 0 
L -3.5 0 
" style="stroke: #000000; stroke-width: 0.8"/>
      </defs>
      <g>
       <use xlink:href="#ma6a6b888a7" x="72.630313" y="130.278984" style="stroke: #000000; stroke-width: 0.8"/>
      </g>
     </g>
     <g id="text_1">
      <!-- 30 -->
      <g transform="translate(49.087812 135.217969) scale(0.13 -0.13)">
       <defs>
        <path id="DejaVuSans-33" d="M 2597 2516 
Q 3050 2419 3304 2112 
Q 3559 1806 3559 1356 
Q 3559 666 3084 287 
Q 2609 -91 1734 -91 
Q 1441 -91 1130 -33 
Q 819 25 488 141 
L 488 750 
Q 750 597 1062 519 
Q 1375 441 1716 441 
Q 2309 441 2620 675 
Q 2931 909 2931 1356 
Q 2931 1769 2642 2001 
Q 2353 2234 1838 2234 
L 1294 2234 
L 1294 2753 
L 1863 2753 
Q 2328 2753 2575 2939 
Q 2822 3125 2822 3475 
Q 2822 3834 2567 4026 
Q 2313 4219 1838 4219 
Q 1578 4219 1281 4162 
Q 984 4106 628 3988 
L 628 4550 
Q 988 4650 1302 4700 
Q 1616 4750 1894 4750 
Q 2613 4750 3031 4423 
Q 3450 4097 3450 3541 
Q 3450 3153 3228 2886 
Q 3006 2619 2597 2516 
z
" transform="scale(0.015625)"/>
        <path id="DejaVuSans-30" d="M 2034 4250 
Q 1547 4250 1301 3770 
Q 1056 3291 1056 2328 
Q 1056 1369 1301 889 
Q 1547 409 2034 409 
Q 2525 409 2770 889 
Q 3016 1369 3016 2328 
Q 3016 3291 2770 3770 
Q 2525 4250 2034 4250 
z
M 2034 4750 
Q 2819 4750 3233 4129 
Q 3647 3509 3647 2328 
Q 3647 1150 3233 529 
Q 2819 -91 2034 -91 
Q 1250 -91 836 529 
Q 422 1150 422 2328 
Q 422 3509 836 4129 
Q 1250 4750 2034 4750 
z
" transform="scale(0.015625)"/>
       </defs>
       <use xlink:href="#DejaVuSans-33"/>
       <use xlink:href="#DejaVuSans-30" x="63.623047"/>
      </g>
     </g>
    </g>
    <g id="ytick_2">
     <g id="line2d_17">
      <path d="M 72.630313 90.898984 
L 488.370312 90.898984 
" clip-path="url(#p730a27eb32)" style="fill: none; stroke: #b0b0b0; stroke-width: 0.8; stroke-linecap: square"/>
     </g>
     <g id="line2d_18">
      <g>
       <use xlink:href="#ma6a6b888a7" x="72.630313" y="90.898984" style="stroke: #000000; stroke-width: 0.8"/>
      </g>
     </g>
     <g id="text_2">
      <!-- 40 -->
      <g transform="translate(49.087812 95.837969) scale(0.13 -0.13)">
       <defs>
        <path id="DejaVuSans-34" d="M 2419 4116 
L 825 1625 
L 2419 1625 
L 2419 4116 
z
M 2253 4666 
L 3047 4666 
L 3047 1625 
L 3713 1625 
L 3713 1100 
L 3047 1100 
L 3047 0 
L 2419 0 
L 2419 1100 
L 313 1100 
L 313 1709 
L 2253 4666 
z
" transform="scale(0.015625)"/>
       </defs>
       <use xlink:href="#DejaVuSans-34"/>
       <use xlink:href="#DejaVuSans-30" x="63.623047"/>
      </g>
     </g>
    </g>
    <g id="ytick_3">
     <g id="line2d_19">
      <path d="M 72.630313 51.518984 
L 488.370312 51.518984 
" clip-path="url(#p730a27eb32)" style="fill: none; stroke: #b0b0b0; stroke-width: 0.8; stroke-linecap: square"/>
     </g>
     <g id="line2d_20">
      <g>
       <use xlink:href="#ma6a6b888a7" x="72.630313" y="51.518984" style="stroke: #000000; stroke-width: 0.8"/>
      </g>
     </g>
     <g id="text_3">
      <!-- 50 -->
      <g transform="translate(49.087812 56.457969) scale(0.13 -0.13)">
       <defs>
        <path id="DejaVuSans-35" d="M 691 4666 
L 3169 4666 
L 3169 4134 
L 1269 4134 
L 1269 2991 
Q 1406 3038 1543 3061 
Q 1681 3084 1819 3084 
Q 2600 3084 3056 2656 
Q 3513 2228 3513 1497 
Q 3513 744 3044 326 
Q 2575 -91 1722 -91 
Q 1428 -91 1123 -41 
Q 819 9 494 109 
L 494 744 
Q 775 591 1075 516 
Q 1375 441 1709 441 
Q 2250 441 2565 725 
Q 2881 1009 2881 1497 
Q 2881 1984 2565 2268 
Q 2250 2553 1709 2553 
Q 1456 2553 1204 2497 
Q 953 2441 691 2322 
L 691 4666 
z
" transform="scale(0.015625)"/>
       </defs>
       <use xlink:href="#DejaVuSans-35"/>
       <use xlink:href="#DejaVuSans-30" x="63.623047"/>
      </g>
     </g>
    </g>
    <g id="ytick_4">
     <g id="line2d_21">
      <path d="M 72.630313 12.138984 
L 488.370312 12.138984 
" clip-path="url(#p730a27eb32)" style="fill: none; stroke: #b0b0b0; stroke-width: 0.8; stroke-linecap: square"/>
     </g>
     <g id="line2d_22">
      <g>
       <use xlink:href="#ma6a6b888a7" x="72.630313" y="12.138984" style="stroke: #000000; stroke-width: 0.8"/>
      </g>
     </g>
     <g id="text_4">
      <!-- 60 -->
      <g transform="translate(49.087812 17.077969) scale(0.13 -0.13)">
       <defs>
        <path id="DejaVuSans-36" d="M 2113 2584 
Q 1688 2584 1439 2293 
Q 1191 2003 1191 1497 
Q 1191 994 1439 701 
Q 1688 409 2113 409 
Q 2538 409 2786 701 
Q 3034 994 3034 1497 
Q 3034 2003 2786 2293 
Q 2538 2584 2113 2584 
z
M 3366 4563 
L 3366 3988 
Q 3128 4100 2886 4159 
Q 2644 4219 2406 4219 
Q 1781 4219 1451 3797 
Q 1122 3375 1075 2522 
Q 1259 2794 1537 2939 
Q 1816 3084 2150 3084 
Q 2853 3084 3261 2657 
Q 3669 2231 3669 1497 
Q 3669 778 3244 343 
Q 2819 -91 2113 -91 
Q 1303 -91 875 529 
Q 447 1150 447 2328 
Q 447 3434 972 4092 
Q 1497 4750 2381 4750 
Q 2619 4750 2861 4703 
Q 3103 4656 3366 4563 
z
" transform="scale(0.015625)"/>
       </defs>
       <use xlink:href="#DejaVuSans-36"/>
       <use xlink:href="#DejaVuSans-30" x="63.623047"/>
      </g>
     </g>
    </g>
    <g id="text_5">
     <!-- Energy $[kWh]$ -->
     <g transform="translate(19.727812 135.613984) rotate(-90) scale(0.16 -0.16)">
      <defs>
       <path id="DejaVuSans-45" d="M 628 4666 
L 3578 4666 
L 3578 4134 
L 1259 4134 
L 1259 2753 
L 3481 2753 
L 3481 2222 
L 1259 2222 
L 1259 531 
L 3634 531 
L 3634 0 
L 628 0 
L 628 4666 
z
" transform="scale(0.015625)"/>
       <path id="DejaVuSans-6e" d="M 3513 2113 
L 3513 0 
L 2938 0 
L 2938 2094 
Q 2938 2591 2744 2837 
Q 2550 3084 2163 3084 
Q 1697 3084 1428 2787 
Q 1159 2491 1159 1978 
L 1159 0 
L 581 0 
L 581 3500 
L 1159 3500 
L 1159 2956 
Q 1366 3272 1645 3428 
Q 1925 3584 2291 3584 
Q 2894 3584 3203 3211 
Q 3513 2838 3513 2113 
z
" transform="scale(0.015625)"/>
       <path id="DejaVuSans-65" d="M 3597 1894 
L 3597 1613 
L 953 1613 
Q 991 1019 1311 708 
Q 1631 397 2203 397 
Q 2534 397 2845 478 
Q 3156 559 3463 722 
L 3463 178 
Q 3153 47 2828 -22 
Q 2503 -91 2169 -91 
Q 1331 -91 842 396 
Q 353 884 353 1716 
Q 353 2575 817 3079 
Q 1281 3584 2069 3584 
Q 2775 3584 3186 3129 
Q 3597 2675 3597 1894 
z
M 3022 2063 
Q 3016 2534 2758 2815 
Q 2500 3097 2075 3097 
Q 1594 3097 1305 2825 
Q 1016 2553 972 2059 
L 3022 2063 
z
" transform="scale(0.015625)"/>
       <path id="DejaVuSans-72" d="M 2631 2963 
Q 2534 3019 2420 3045 
Q 2306 3072 2169 3072 
Q 1681 3072 1420 2755 
Q 1159 2438 1159 1844 
L 1159 0 
L 581 0 
L 581 3500 
L 1159 3500 
L 1159 2956 
Q 1341 3275 1631 3429 
Q 1922 3584 2338 3584 
Q 2397 3584 2469 3576 
Q 2541 3569 2628 3553 
L 2631 2963 
z
" transform="scale(0.015625)"/>
       <path id="DejaVuSans-67" d="M 2906 1791 
Q 2906 2416 2648 2759 
Q 2391 3103 1925 3103 
Q 1463 3103 1205 2759 
Q 947 2416 947 1791 
Q 947 1169 1205 825 
Q 1463 481 1925 481 
Q 2391 481 2648 825 
Q 2906 1169 2906 1791 
z
M 3481 434 
Q 3481 -459 3084 -895 
Q 2688 -1331 1869 -1331 
Q 1566 -1331 1297 -1286 
Q 1028 -1241 775 -1147 
L 775 -588 
Q 1028 -725 1275 -790 
Q 1522 -856 1778 -856 
Q 2344 -856 2625 -561 
Q 2906 -266 2906 331 
L 2906 616 
Q 2728 306 2450 153 
Q 2172 0 1784 0 
Q 1141 0 747 490 
Q 353 981 353 1791 
Q 353 2603 747 3093 
Q 1141 3584 1784 3584 
Q 2172 3584 2450 3431 
Q 2728 3278 2906 2969 
L 2906 3500 
L 3481 3500 
L 3481 434 
z
" transform="scale(0.015625)"/>
       <path id="DejaVuSans-79" d="M 2059 -325 
Q 1816 -950 1584 -1140 
Q 1353 -1331 966 -1331 
L 506 -1331 
L 506 -850 
L 844 -850 
Q 1081 -850 1212 -737 
Q 1344 -625 1503 -206 
L 1606 56 
L 191 3500 
L 800 3500 
L 1894 763 
L 2988 3500 
L 3597 3500 
L 2059 -325 
z
" transform="scale(0.015625)"/>
       <path id="DejaVuSans-20" transform="scale(0.015625)"/>
       <path id="DejaVuSans-5b" d="M 550 4863 
L 1875 4863 
L 1875 4416 
L 1125 4416 
L 1125 -397 
L 1875 -397 
L 1875 -844 
L 550 -844 
L 550 4863 
z
" transform="scale(0.015625)"/>
       <path id="DejaVuSans-Oblique-6b" d="M 1172 4863 
L 1747 4863 
L 1197 2028 
L 3169 3500 
L 3916 3500 
L 1716 1825 
L 3322 0 
L 2625 0 
L 1131 1709 
L 800 0 
L 225 0 
L 1172 4863 
z
" transform="scale(0.015625)"/>
       <path id="DejaVuSans-Oblique-57" d="M 616 4666 
L 1228 4666 
L 1453 697 
L 3213 4666 
L 3916 4666 
L 4147 697 
L 5888 4666 
L 6528 4666 
L 4453 0 
L 3659 0 
L 3444 3891 
L 1697 0 
L 903 0 
L 616 4666 
z
" transform="scale(0.015625)"/>
       <path id="DejaVuSans-Oblique-68" d="M 3566 2113 
L 3156 0 
L 2578 0 
L 2988 2091 
Q 3016 2238 3031 2350 
Q 3047 2463 3047 2528 
Q 3047 2791 2881 2937 
Q 2716 3084 2419 3084 
Q 1956 3084 1617 2771 
Q 1278 2459 1178 1941 
L 800 0 
L 225 0 
L 1172 4863 
L 1747 4863 
L 1375 2950 
Q 1594 3244 1934 3414 
Q 2275 3584 2650 3584 
Q 3113 3584 3367 3334 
Q 3622 3084 3622 2631 
Q 3622 2519 3608 2391 
Q 3594 2263 3566 2113 
z
" transform="scale(0.015625)"/>
       <path id="DejaVuSans-5d" d="M 1947 4863 
L 1947 -844 
L 622 -844 
L 622 -397 
L 1369 -397 
L 1369 4416 
L 622 4416 
L 622 4863 
L 1947 4863 
z
" transform="scale(0.015625)"/>
      </defs>
      <use xlink:href="#DejaVuSans-45" transform="translate(0 0.015625)"/>
      <use xlink:href="#DejaVuSans-6e" transform="translate(63.183594 0.015625)"/>
      <use xlink:href="#DejaVuSans-65" transform="translate(126.5625 0.015625)"/>
      <use xlink:href="#DejaVuSans-72" transform="translate(188.085938 0.015625)"/>
      <use xlink:href="#DejaVuSans-67" transform="translate(229.199219 0.015625)"/>
      <use xlink:href="#DejaVuSans-79" transform="translate(292.675781 0.015625)"/>
      <use xlink:href="#DejaVuSans-20" transform="translate(351.855469 0.015625)"/>
      <use xlink:href="#DejaVuSans-5b" transform="translate(383.642578 0.015625)"/>
      <use xlink:href="#DejaVuSans-Oblique-6b" transform="translate(422.65625 0.015625)"/>
      <use xlink:href="#DejaVuSans-Oblique-57" transform="translate(480.566406 0.015625)"/>
      <use xlink:href="#DejaVuSans-Oblique-68" transform="translate(579.443359 0.015625)"/>
      <use xlink:href="#DejaVuSans-5d" transform="translate(642.822266 0.015625)"/>
     </g>
    </g>
   </g>
   <g id="line2d_23">
    <path d="M 91.527585 94.817294 
L 97.432983 92.861421 
L 103.338381 91.975371 
L 109.243778 90.990871 
L 115.149176 90.656141 
L 121.054574 89.461614 
L 126.959972 88.910294 
L 132.865369 87.689514 
L 138.770767 87.243208 
L 144.676165 87.072561 
L 150.581562 87.551684 
L 156.48696 87.610754 
L 162.392358 89.048124 
L 168.297756 90.958054 
L 174.203153 92.854858 
L 180.108551 92.703901 
L 186.013949 92.802351 
L 191.919347 92.913928 
L 197.824744 93.347108 
L 203.730142 93.734344 
L 209.63554 93.274911 
L 215.540937 92.651394 
L 221.446335 92.730154 
L 227.351733 92.874548 
L 233.257131 93.248658 
L 239.162528 94.535071 
L 245.067926 95.946188 
L 250.973324 97.416374 
L 256.878722 97.737978 
L 262.784119 98.053018 
L 268.689517 98.814364 
L 274.594915 98.368058 
L 280.500312 98.190848 
L 286.40571 97.376994 
L 292.311108 97.764231 
L 298.216506 97.613274 
L 304.121903 97.258854 
L 310.027301 96.497508 
L 315.932699 95.821484 
L 321.838097 95.440811 
L 327.743494 95.624584 
L 333.648892 95.086391 
L 339.55429 96.038074 
L 345.459687 95.611458 
L 351.365085 95.703344 
L 357.270483 94.233158 
L 363.175881 94.981378 
L 369.081278 95.782104 
L 374.986676 96.996321 
L 380.892074 96.523761 
L 386.797472 97.127588 
L 392.702869 97.764231 
L 398.608267 97.698598 
L 404.513665 98.000511 
L 410.419062 97.993948 
L 416.32446 99.070334 
L 422.229858 98.715914 
L 428.135256 97.606711 
L 434.040653 96.943814 
L 439.946051 97.166968 
L 445.851449 97.449191 
L 451.756847 97.134151 
L 457.662244 97.534514 
L 463.567642 98.079271 
L 469.47304 98.479634 
" clip-path="url(#p730a27eb32)" style="fill: none; stroke: #ff0000; stroke-width: 2; stroke-linecap: square"/>
   </g>
   <g id="line2d_24">
    <path d="M 91.527585 66.601524 
L 97.432983 64.501258 
L 103.338381 64.639088 
L 109.243778 62.952311 
L 115.149176 62.295978 
L 121.054574 61.639644 
L 126.959972 59.605011 
L 132.865369 57.530998 
L 138.770767 56.336471 
L 144.676165 57.767278 
L 150.581562 59.900361 
L 156.48696 61.331168 
L 162.392358 65.334801 
L 168.297756 68.924944 
L 174.203153 71.537151 
L 180.108551 71.012084 
L 186.013949 70.053838 
L 191.919347 70.034148 
L 197.824744 70.257301 
L 203.730142 70.854564 
L 209.63554 70.112908 
L 215.540937 70.185104 
L 221.446335 69.837248 
L 227.351733 70.263864 
L 233.257131 71.569968 
L 239.162528 74.221554 
L 245.067926 76.879704 
L 250.973324 77.076604 
L 256.878722 77.358828 
L 262.784119 75.829571 
L 268.689517 76.328384 
L 274.594915 75.376701 
L 280.500312 76.183991 
L 286.40571 74.169048 
L 292.311108 74.575974 
L 298.216506 74.037781 
L 304.121903 74.996028 
L 310.027301 72.711988 
L 315.932699 71.399321 
L 321.838097 70.460764 
L 327.743494 72.081908 
L 333.648892 72.456018 
L 339.55429 74.786001 
L 345.459687 73.493024 
L 351.365085 73.263308 
L 357.270483 71.491208 
L 363.175881 72.974521 
L 369.081278 72.672608 
L 374.986676 73.913078 
L 380.892074 74.228118 
L 386.797472 76.433398 
L 392.702869 76.321821 
L 398.608267 75.862388 
L 404.513665 76.512158 
L 410.419062 77.240688 
L 416.32446 78.363018 
L 422.229858 76.223371 
L 428.135256 74.976338 
L 434.040653 73.309251 
L 439.946051 74.831944 
L 445.851449 74.549721 
L 451.756847 73.926204 
L 457.662244 74.818818 
L 463.567642 74.759748 
L 469.47304 77.778881 
" clip-path="url(#p730a27eb32)" style="fill: none; stroke: #000000; stroke-width: 2; stroke-linecap: square"/>
   </g>
   <g id="patch_3">
    <path d="M 72.630313 149.968984 
L 72.630313 12.138984 
" style="fill: none; stroke: #000000; stroke-width: 0.8; stroke-linejoin: miter; stroke-linecap: square"/>
   </g>
   <g id="patch_4">
    <path d="M 488.370312 149.968984 
L 488.370312 12.138984 
" style="fill: none; stroke: #000000; stroke-width: 0.8; stroke-linejoin: miter; stroke-linecap: square"/>
   </g>
   <g id="patch_5">
    <path d="M 72.630313 149.968984 
L 488.370312 149.968984 
" style="fill: none; stroke: #000000; stroke-width: 0.8; stroke-linejoin: miter; stroke-linecap: square"/>
   </g>
   <g id="patch_6">
    <path d="M 72.630313 12.138984 
L 488.370312 12.138984 
" style="fill: none; stroke: #000000; stroke-width: 0.8; stroke-linejoin: miter; stroke-linecap: square"/>
   </g>
   <g id="legend_1">
    <g id="patch_7">
     <path d="M 363.778125 144.968984 
L 481.370312 144.968984 
Q 483.370312 144.968984 483.370312 142.968984 
L 483.370312 114.612734 
Q 483.370312 112.612734 481.370312 112.612734 
L 363.778125 112.612734 
Q 361.778125 112.612734 361.778125 114.612734 
L 361.778125 142.968984 
Q 361.778125 144.968984 363.778125 144.968984 
z
" style="fill: #ffffff; opacity: 0.8; stroke: #cccccc; stroke-linejoin: miter"/>
    </g>
    <g id="line2d_25">
     <path d="M 365.778125 120.711172 
L 375.778125 120.711172 
L 385.778125 120.711172 
" style="fill: none; stroke: #ff0000; stroke-width: 2; stroke-linecap: square"/>
    </g>
    <g id="text_6">
     <!-- Optimal Strategy -->
     <g transform="translate(393.778125 124.211172) scale(0.1 -0.1)">
      <defs>
       <path id="DejaVuSans-4f" d="M 2522 4238 
Q 1834 4238 1429 3725 
Q 1025 3213 1025 2328 
Q 1025 1447 1429 934 
Q 1834 422 2522 422 
Q 3209 422 3611 934 
Q 4013 1447 4013 2328 
Q 4013 3213 3611 3725 
Q 3209 4238 2522 4238 
z
M 2522 4750 
Q 3503 4750 4090 4092 
Q 4678 3434 4678 2328 
Q 4678 1225 4090 567 
Q 3503 -91 2522 -91 
Q 1538 -91 948 565 
Q 359 1222 359 2328 
Q 359 3434 948 4092 
Q 1538 4750 2522 4750 
z
" transform="scale(0.015625)"/>
       <path id="DejaVuSans-70" d="M 1159 525 
L 1159 -1331 
L 581 -1331 
L 581 3500 
L 1159 3500 
L 1159 2969 
Q 1341 3281 1617 3432 
Q 1894 3584 2278 3584 
Q 2916 3584 3314 3078 
Q 3713 2572 3713 1747 
Q 3713 922 3314 415 
Q 2916 -91 2278 -91 
Q 1894 -91 1617 61 
Q 1341 213 1159 525 
z
M 3116 1747 
Q 3116 2381 2855 2742 
Q 2594 3103 2138 3103 
Q 1681 3103 1420 2742 
Q 1159 2381 1159 1747 
Q 1159 1113 1420 752 
Q 1681 391 2138 391 
Q 2594 391 2855 752 
Q 3116 1113 3116 1747 
z
" transform="scale(0.015625)"/>
       <path id="DejaVuSans-74" d="M 1172 4494 
L 1172 3500 
L 2356 3500 
L 2356 3053 
L 1172 3053 
L 1172 1153 
Q 1172 725 1289 603 
Q 1406 481 1766 481 
L 2356 481 
L 2356 0 
L 1766 0 
Q 1100 0 847 248 
Q 594 497 594 1153 
L 594 3053 
L 172 3053 
L 172 3500 
L 594 3500 
L 594 4494 
L 1172 4494 
z
" transform="scale(0.015625)"/>
       <path id="DejaVuSans-69" d="M 603 3500 
L 1178 3500 
L 1178 0 
L 603 0 
L 603 3500 
z
M 603 4863 
L 1178 4863 
L 1178 4134 
L 603 4134 
L 603 4863 
z
" transform="scale(0.015625)"/>
       <path id="DejaVuSans-6d" d="M 3328 2828 
Q 3544 3216 3844 3400 
Q 4144 3584 4550 3584 
Q 5097 3584 5394 3201 
Q 5691 2819 5691 2113 
L 5691 0 
L 5113 0 
L 5113 2094 
Q 5113 2597 4934 2840 
Q 4756 3084 4391 3084 
Q 3944 3084 3684 2787 
Q 3425 2491 3425 1978 
L 3425 0 
L 2847 0 
L 2847 2094 
Q 2847 2600 2669 2842 
Q 2491 3084 2119 3084 
Q 1678 3084 1418 2786 
Q 1159 2488 1159 1978 
L 1159 0 
L 581 0 
L 581 3500 
L 1159 3500 
L 1159 2956 
Q 1356 3278 1631 3431 
Q 1906 3584 2284 3584 
Q 2666 3584 2933 3390 
Q 3200 3197 3328 2828 
z
" transform="scale(0.015625)"/>
       <path id="DejaVuSans-61" d="M 2194 1759 
Q 1497 1759 1228 1600 
Q 959 1441 959 1056 
Q 959 750 1161 570 
Q 1363 391 1709 391 
Q 2188 391 2477 730 
Q 2766 1069 2766 1631 
L 2766 1759 
L 2194 1759 
z
M 3341 1997 
L 3341 0 
L 2766 0 
L 2766 531 
Q 2569 213 2275 61 
Q 1981 -91 1556 -91 
Q 1019 -91 701 211 
Q 384 513 384 1019 
Q 384 1609 779 1909 
Q 1175 2209 1959 2209 
L 2766 2209 
L 2766 2266 
Q 2766 2663 2505 2880 
Q 2244 3097 1772 3097 
Q 1472 3097 1187 3025 
Q 903 2953 641 2809 
L 641 3341 
Q 956 3463 1253 3523 
Q 1550 3584 1831 3584 
Q 2591 3584 2966 3190 
Q 3341 2797 3341 1997 
z
" transform="scale(0.015625)"/>
       <path id="DejaVuSans-6c" d="M 603 4863 
L 1178 4863 
L 1178 0 
L 603 0 
L 603 4863 
z
" transform="scale(0.015625)"/>
       <path id="DejaVuSans-53" d="M 3425 4513 
L 3425 3897 
Q 3066 4069 2747 4153 
Q 2428 4238 2131 4238 
Q 1616 4238 1336 4038 
Q 1056 3838 1056 3469 
Q 1056 3159 1242 3001 
Q 1428 2844 1947 2747 
L 2328 2669 
Q 3034 2534 3370 2195 
Q 3706 1856 3706 1288 
Q 3706 609 3251 259 
Q 2797 -91 1919 -91 
Q 1588 -91 1214 -16 
Q 841 59 441 206 
L 441 856 
Q 825 641 1194 531 
Q 1563 422 1919 422 
Q 2459 422 2753 634 
Q 3047 847 3047 1241 
Q 3047 1584 2836 1778 
Q 2625 1972 2144 2069 
L 1759 2144 
Q 1053 2284 737 2584 
Q 422 2884 422 3419 
Q 422 4038 858 4394 
Q 1294 4750 2059 4750 
Q 2388 4750 2728 4690 
Q 3069 4631 3425 4513 
z
" transform="scale(0.015625)"/>
      </defs>
      <use xlink:href="#DejaVuSans-4f"/>
      <use xlink:href="#DejaVuSans-70" x="78.710938"/>
      <use xlink:href="#DejaVuSans-74" x="142.1875"/>
      <use xlink:href="#DejaVuSans-69" x="181.396484"/>
      <use xlink:href="#DejaVuSans-6d" x="209.179688"/>
      <use xlink:href="#DejaVuSans-61" x="306.591797"/>
      <use xlink:href="#DejaVuSans-6c" x="367.871094"/>
      <use xlink:href="#DejaVuSans-20" x="395.654297"/>
      <use xlink:href="#DejaVuSans-53" x="427.441406"/>
      <use xlink:href="#DejaVuSans-74" x="490.917969"/>
      <use xlink:href="#DejaVuSans-72" x="530.126953"/>
      <use xlink:href="#DejaVuSans-61" x="571.240234"/>
      <use xlink:href="#DejaVuSans-74" x="632.519531"/>
      <use xlink:href="#DejaVuSans-65" x="671.728516"/>
      <use xlink:href="#DejaVuSans-67" x="733.251953"/>
      <use xlink:href="#DejaVuSans-79" x="796.728516"/>
     </g>
    </g>
    <g id="line2d_26">
     <path d="M 365.778125 135.389297 
L 375.778125 135.389297 
L 385.778125 135.389297 
" style="fill: none; stroke: #000000; stroke-width: 2; stroke-linecap: square"/>
    </g>
    <g id="text_7">
     <!-- Old Strategy -->
     <g transform="translate(393.778125 138.889297) scale(0.1 -0.1)">
      <defs>
       <path id="DejaVuSans-64" d="M 2906 2969 
L 2906 4863 
L 3481 4863 
L 3481 0 
L 2906 0 
L 2906 525 
Q 2725 213 2448 61 
Q 2172 -91 1784 -91 
Q 1150 -91 751 415 
Q 353 922 353 1747 
Q 353 2572 751 3078 
Q 1150 3584 1784 3584 
Q 2172 3584 2448 3432 
Q 2725 3281 2906 2969 
z
M 947 1747 
Q 947 1113 1208 752 
Q 1469 391 1925 391 
Q 2381 391 2643 752 
Q 2906 1113 2906 1747 
Q 2906 2381 2643 2742 
Q 2381 3103 1925 3103 
Q 1469 3103 1208 2742 
Q 947 2381 947 1747 
z
" transform="scale(0.015625)"/>
      </defs>
      <use xlink:href="#DejaVuSans-4f"/>
      <use xlink:href="#DejaVuSans-6c" x="78.710938"/>
      <use xlink:href="#DejaVuSans-64" x="106.494141"/>
      <use xlink:href="#DejaVuSans-20" x="169.970703"/>
      <use xlink:href="#DejaVuSans-53" x="201.757812"/>
      <use xlink:href="#DejaVuSans-74" x="265.234375"/>
      <use xlink:href="#DejaVuSans-72" x="304.443359"/>
      <use xlink:href="#DejaVuSans-61" x="345.556641"/>
      <use xlink:href="#DejaVuSans-74" x="406.835938"/>
      <use xlink:href="#DejaVuSans-65" x="446.044922"/>
      <use xlink:href="#DejaVuSans-67" x="507.568359"/>
      <use xlink:href="#DejaVuSans-79" x="571.044922"/>
     </g>
    </g>
   </g>
  </g>
  <g id="axes_2">
   <g id="patch_8">
    <path d="M 72.630313 307.138984 
L 488.370312 307.138984 
L 488.370312 169.308984 
L 72.630313 169.308984 
z
" style="fill: #ffffff"/>
   </g>
   <g id="matplotlib.axis_3">
    <g id="xtick_8">
     <g id="line2d_27">
      <path d="M 79.71679 307.138984 
L 79.71679 169.308984 
" clip-path="url(#pd53fb4d45f)" style="fill: none; stroke: #b0b0b0; stroke-width: 0.8; stroke-linecap: square"/>
     </g>
     <g id="line2d_28">
      <g>
       <use xlink:href="#m607e5f3b20" x="79.71679" y="307.138984" style="stroke: #000000; stroke-width: 0.8"/>
      </g>
     </g>
     <g id="text_8">
      <!-- 0 -->
      <g transform="translate(75.581165 324.016953) scale(0.13 -0.13)">
       <use xlink:href="#DejaVuSans-30"/>
      </g>
     </g>
    </g>
    <g id="xtick_9">
     <g id="line2d_29">
      <path d="M 138.770767 307.138984 
L 138.770767 169.308984 
" clip-path="url(#pd53fb4d45f)" style="fill: none; stroke: #b0b0b0; stroke-width: 0.8; stroke-linecap: square"/>
     </g>
     <g id="line2d_30">
      <g>
       <use xlink:href="#m607e5f3b20" x="138.770767" y="307.138984" style="stroke: #000000; stroke-width: 0.8"/>
      </g>
     </g>
     <g id="text_9">
      <!-- 10 -->
      <g transform="translate(130.499517 324.016953) scale(0.13 -0.13)">
       <defs>
        <path id="DejaVuSans-31" d="M 794 531 
L 1825 531 
L 1825 4091 
L 703 3866 
L 703 4441 
L 1819 4666 
L 2450 4666 
L 2450 531 
L 3481 531 
L 3481 0 
L 794 0 
L 794 531 
z
" transform="scale(0.015625)"/>
       </defs>
       <use xlink:href="#DejaVuSans-31"/>
       <use xlink:href="#DejaVuSans-30" x="63.623047"/>
      </g>
     </g>
    </g>
    <g id="xtick_10">
     <g id="line2d_31">
      <path d="M 197.824744 307.138984 
L 197.824744 169.308984 
" clip-path="url(#pd53fb4d45f)" style="fill: none; stroke: #b0b0b0; stroke-width: 0.8; stroke-linecap: square"/>
     </g>
     <g id="line2d_32">
      <g>
       <use xlink:href="#m607e5f3b20" x="197.824744" y="307.138984" style="stroke: #000000; stroke-width: 0.8"/>
      </g>
     </g>
     <g id="text_10">
      <!-- 20 -->
      <g transform="translate(189.553494 324.016953) scale(0.13 -0.13)">
       <defs>
        <path id="DejaVuSans-32" d="M 1228 531 
L 3431 531 
L 3431 0 
L 469 0 
L 469 531 
Q 828 903 1448 1529 
Q 2069 2156 2228 2338 
Q 2531 2678 2651 2914 
Q 2772 3150 2772 3378 
Q 2772 3750 2511 3984 
Q 2250 4219 1831 4219 
Q 1534 4219 1204 4116 
Q 875 4013 500 3803 
L 500 4441 
Q 881 4594 1212 4672 
Q 1544 4750 1819 4750 
Q 2544 4750 2975 4387 
Q 3406 4025 3406 3419 
Q 3406 3131 3298 2873 
Q 3191 2616 2906 2266 
Q 2828 2175 2409 1742 
Q 1991 1309 1228 531 
z
" transform="scale(0.015625)"/>
       </defs>
       <use xlink:href="#DejaVuSans-32"/>
       <use xlink:href="#DejaVuSans-30" x="63.623047"/>
      </g>
     </g>
    </g>
    <g id="xtick_11">
     <g id="line2d_33">
      <path d="M 256.878722 307.138984 
L 256.878722 169.308984 
" clip-path="url(#pd53fb4d45f)" style="fill: none; stroke: #b0b0b0; stroke-width: 0.8; stroke-linecap: square"/>
     </g>
     <g id="line2d_34">
      <g>
       <use xlink:href="#m607e5f3b20" x="256.878722" y="307.138984" style="stroke: #000000; stroke-width: 0.8"/>
      </g>
     </g>
     <g id="text_11">
      <!-- 30 -->
      <g transform="translate(248.607472 324.016953) scale(0.13 -0.13)">
       <use xlink:href="#DejaVuSans-33"/>
       <use xlink:href="#DejaVuSans-30" x="63.623047"/>
      </g>
     </g>
    </g>
    <g id="xtick_12">
     <g id="line2d_35">
      <path d="M 315.932699 307.138984 
L 315.932699 169.308984 
" clip-path="url(#pd53fb4d45f)" style="fill: none; stroke: #b0b0b0; stroke-width: 0.8; stroke-linecap: square"/>
     </g>
     <g id="line2d_36">
      <g>
       <use xlink:href="#m607e5f3b20" x="315.932699" y="307.138984" style="stroke: #000000; stroke-width: 0.8"/>
      </g>
     </g>
     <g id="text_12">
      <!-- 40 -->
      <g transform="translate(307.661449 324.016953) scale(0.13 -0.13)">
       <use xlink:href="#DejaVuSans-34"/>
       <use xlink:href="#DejaVuSans-30" x="63.623047"/>
      </g>
     </g>
    </g>
    <g id="xtick_13">
     <g id="line2d_37">
      <path d="M 374.986676 307.138984 
L 374.986676 169.308984 
" clip-path="url(#pd53fb4d45f)" style="fill: none; stroke: #b0b0b0; stroke-width: 0.8; stroke-linecap: square"/>
     </g>
     <g id="line2d_38">
      <g>
       <use xlink:href="#m607e5f3b20" x="374.986676" y="307.138984" style="stroke: #000000; stroke-width: 0.8"/>
      </g>
     </g>
     <g id="text_13">
      <!-- 50 -->
      <g transform="translate(366.715426 324.016953) scale(0.13 -0.13)">
       <use xlink:href="#DejaVuSans-35"/>
       <use xlink:href="#DejaVuSans-30" x="63.623047"/>
      </g>
     </g>
    </g>
    <g id="xtick_14">
     <g id="line2d_39">
      <path d="M 434.040653 307.138984 
L 434.040653 169.308984 
" clip-path="url(#pd53fb4d45f)" style="fill: none; stroke: #b0b0b0; stroke-width: 0.8; stroke-linecap: square"/>
     </g>
     <g id="line2d_40">
      <g>
       <use xlink:href="#m607e5f3b20" x="434.040653" y="307.138984" style="stroke: #000000; stroke-width: 0.8"/>
      </g>
     </g>
     <g id="text_14">
      <!-- 60 -->
      <g transform="translate(425.769403 324.016953) scale(0.13 -0.13)">
       <use xlink:href="#DejaVuSans-36"/>
       <use xlink:href="#DejaVuSans-30" x="63.623047"/>
      </g>
     </g>
    </g>
    <g id="text_15">
     <!-- Time (min) -->
     <g transform="translate(237.056562 342.878047) scale(0.16 -0.16)">
      <defs>
       <path id="DejaVuSans-54" d="M -19 4666 
L 3928 4666 
L 3928 4134 
L 2272 4134 
L 2272 0 
L 1638 0 
L 1638 4134 
L -19 4134 
L -19 4666 
z
" transform="scale(0.015625)"/>
       <path id="DejaVuSans-28" d="M 1984 4856 
Q 1566 4138 1362 3434 
Q 1159 2731 1159 2009 
Q 1159 1288 1364 580 
Q 1569 -128 1984 -844 
L 1484 -844 
Q 1016 -109 783 600 
Q 550 1309 550 2009 
Q 550 2706 781 3412 
Q 1013 4119 1484 4856 
L 1984 4856 
z
" transform="scale(0.015625)"/>
       <path id="DejaVuSans-29" d="M 513 4856 
L 1013 4856 
Q 1481 4119 1714 3412 
Q 1947 2706 1947 2009 
Q 1947 1309 1714 600 
Q 1481 -109 1013 -844 
L 513 -844 
Q 928 -128 1133 580 
Q 1338 1288 1338 2009 
Q 1338 2731 1133 3434 
Q 928 4138 513 4856 
z
" transform="scale(0.015625)"/>
      </defs>
      <use xlink:href="#DejaVuSans-54"/>
      <use xlink:href="#DejaVuSans-69" x="57.958984"/>
      <use xlink:href="#DejaVuSans-6d" x="85.742188"/>
      <use xlink:href="#DejaVuSans-65" x="183.154297"/>
      <use xlink:href="#DejaVuSans-20" x="244.677734"/>
      <use xlink:href="#DejaVuSans-28" x="276.464844"/>
      <use xlink:href="#DejaVuSans-6d" x="315.478516"/>
      <use xlink:href="#DejaVuSans-69" x="412.890625"/>
      <use xlink:href="#DejaVuSans-6e" x="440.673828"/>
      <use xlink:href="#DejaVuSans-29" x="504.052734"/>
     </g>
    </g>
   </g>
   <g id="matplotlib.axis_4">
    <g id="ytick_5">
     <g id="line2d_41">
      <path d="M 72.630313 279.572984 
L 488.370312 279.572984 
" clip-path="url(#pd53fb4d45f)" style="fill: none; stroke: #b0b0b0; stroke-width: 0.8; stroke-linecap: square"/>
     </g>
     <g id="line2d_42">
      <g>
       <use xlink:href="#ma6a6b888a7" x="72.630313" y="279.572984" style="stroke: #000000; stroke-width: 0.8"/>
      </g>
     </g>
     <g id="text_16">
      <!-- 0.08 -->
      <g transform="translate(36.685 284.511969) scale(0.13 -0.13)">
       <defs>
        <path id="DejaVuSans-2e" d="M 684 794 
L 1344 794 
L 1344 0 
L 684 0 
L 684 794 
z
" transform="scale(0.015625)"/>
        <path id="DejaVuSans-38" d="M 2034 2216 
Q 1584 2216 1326 1975 
Q 1069 1734 1069 1313 
Q 1069 891 1326 650 
Q 1584 409 2034 409 
Q 2484 409 2743 651 
Q 3003 894 3003 1313 
Q 3003 1734 2745 1975 
Q 2488 2216 2034 2216 
z
M 1403 2484 
Q 997 2584 770 2862 
Q 544 3141 544 3541 
Q 544 4100 942 4425 
Q 1341 4750 2034 4750 
Q 2731 4750 3128 4425 
Q 3525 4100 3525 3541 
Q 3525 3141 3298 2862 
Q 3072 2584 2669 2484 
Q 3125 2378 3379 2068 
Q 3634 1759 3634 1313 
Q 3634 634 3220 271 
Q 2806 -91 2034 -91 
Q 1263 -91 848 271 
Q 434 634 434 1313 
Q 434 1759 690 2068 
Q 947 2378 1403 2484 
z
M 1172 3481 
Q 1172 3119 1398 2916 
Q 1625 2713 2034 2713 
Q 2441 2713 2670 2916 
Q 2900 3119 2900 3481 
Q 2900 3844 2670 4047 
Q 2441 4250 2034 4250 
Q 1625 4250 1398 4047 
Q 1172 3844 1172 3481 
z
" transform="scale(0.015625)"/>
       </defs>
       <use xlink:href="#DejaVuSans-30"/>
       <use xlink:href="#DejaVuSans-2e" x="63.623047"/>
       <use xlink:href="#DejaVuSans-30" x="95.410156"/>
       <use xlink:href="#DejaVuSans-38" x="159.033203"/>
      </g>
     </g>
    </g>
    <g id="ytick_6">
     <g id="line2d_43">
      <path d="M 72.630313 242.818318 
L 488.370312 242.818318 
" clip-path="url(#pd53fb4d45f)" style="fill: none; stroke: #b0b0b0; stroke-width: 0.8; stroke-linecap: square"/>
     </g>
     <g id="line2d_44">
      <g>
       <use xlink:href="#ma6a6b888a7" x="72.630313" y="242.818318" style="stroke: #000000; stroke-width: 0.8"/>
      </g>
     </g>
     <g id="text_17">
      <!-- 0.10 -->
      <g transform="translate(36.685 247.757302) scale(0.13 -0.13)">
       <use xlink:href="#DejaVuSans-30"/>
       <use xlink:href="#DejaVuSans-2e" x="63.623047"/>
       <use xlink:href="#DejaVuSans-31" x="95.410156"/>
       <use xlink:href="#DejaVuSans-30" x="159.033203"/>
      </g>
     </g>
    </g>
    <g id="ytick_7">
     <g id="line2d_45">
      <path d="M 72.630313 206.063651 
L 488.370312 206.063651 
" clip-path="url(#pd53fb4d45f)" style="fill: none; stroke: #b0b0b0; stroke-width: 0.8; stroke-linecap: square"/>
     </g>
     <g id="line2d_46">
      <g>
       <use xlink:href="#ma6a6b888a7" x="72.630313" y="206.063651" style="stroke: #000000; stroke-width: 0.8"/>
      </g>
     </g>
     <g id="text_18">
      <!-- 0.12 -->
      <g transform="translate(36.685 211.002635) scale(0.13 -0.13)">
       <use xlink:href="#DejaVuSans-30"/>
       <use xlink:href="#DejaVuSans-2e" x="63.623047"/>
       <use xlink:href="#DejaVuSans-31" x="95.410156"/>
       <use xlink:href="#DejaVuSans-32" x="159.033203"/>
      </g>
     </g>
    </g>
    <g id="ytick_8">
     <g id="line2d_47">
      <path d="M 72.630313 169.308984 
L 488.370312 169.308984 
" clip-path="url(#pd53fb4d45f)" style="fill: none; stroke: #b0b0b0; stroke-width: 0.8; stroke-linecap: square"/>
     </g>
     <g id="line2d_48">
      <g>
       <use xlink:href="#ma6a6b888a7" x="72.630313" y="169.308984" style="stroke: #000000; stroke-width: 0.8"/>
      </g>
     </g>
     <g id="text_19">
      <!-- 0.14 -->
      <g transform="translate(36.685 174.247969) scale(0.13 -0.13)">
       <use xlink:href="#DejaVuSans-30"/>
       <use xlink:href="#DejaVuSans-2e" x="63.623047"/>
       <use xlink:href="#DejaVuSans-31" x="95.410156"/>
       <use xlink:href="#DejaVuSans-34" x="159.033203"/>
      </g>
     </g>
    </g>
    <g id="text_20">
     <!-- Outflow [m³/s] -->
     <g transform="translate(19.3575 295.851484) rotate(-90) scale(0.16 -0.16)">
      <defs>
       <path id="DejaVuSans-75" d="M 544 1381 
L 544 3500 
L 1119 3500 
L 1119 1403 
Q 1119 906 1312 657 
Q 1506 409 1894 409 
Q 2359 409 2629 706 
Q 2900 1003 2900 1516 
L 2900 3500 
L 3475 3500 
L 3475 0 
L 2900 0 
L 2900 538 
Q 2691 219 2414 64 
Q 2138 -91 1772 -91 
Q 1169 -91 856 284 
Q 544 659 544 1381 
z
M 1991 3584 
L 1991 3584 
z
" transform="scale(0.015625)"/>
       <path id="DejaVuSans-66" d="M 2375 4863 
L 2375 4384 
L 1825 4384 
Q 1516 4384 1395 4259 
Q 1275 4134 1275 3809 
L 1275 3500 
L 2222 3500 
L 2222 3053 
L 1275 3053 
L 1275 0 
L 697 0 
L 697 3053 
L 147 3053 
L 147 3500 
L 697 3500 
L 697 3744 
Q 697 4328 969 4595 
Q 1241 4863 1831 4863 
L 2375 4863 
z
" transform="scale(0.015625)"/>
       <path id="DejaVuSans-6f" d="M 1959 3097 
Q 1497 3097 1228 2736 
Q 959 2375 959 1747 
Q 959 1119 1226 758 
Q 1494 397 1959 397 
Q 2419 397 2687 759 
Q 2956 1122 2956 1747 
Q 2956 2369 2687 2733 
Q 2419 3097 1959 3097 
z
M 1959 3584 
Q 2709 3584 3137 3096 
Q 3566 2609 3566 1747 
Q 3566 888 3137 398 
Q 2709 -91 1959 -91 
Q 1206 -91 779 398 
Q 353 888 353 1747 
Q 353 2609 779 3096 
Q 1206 3584 1959 3584 
z
" transform="scale(0.015625)"/>
       <path id="DejaVuSans-77" d="M 269 3500 
L 844 3500 
L 1563 769 
L 2278 3500 
L 2956 3500 
L 3675 769 
L 4391 3500 
L 4966 3500 
L 4050 0 
L 3372 0 
L 2619 2869 
L 1863 0 
L 1184 0 
L 269 3500 
z
" transform="scale(0.015625)"/>
       <path id="DejaVuSans-b3" d="M 1638 3500 
Q 1925 3444 2083 3273 
Q 2241 3103 2241 2847 
Q 2241 2459 1944 2250 
Q 1647 2041 1094 2041 
Q 916 2041 720 2073 
Q 525 2106 306 2169 
L 306 2547 
Q 469 2463 655 2422 
Q 841 2381 1050 2381 
Q 1391 2381 1578 2504 
Q 1766 2628 1766 2847 
Q 1766 3078 1592 3197 
Q 1419 3316 1081 3316 
L 813 3316 
L 813 3653 
L 1106 3653 
Q 1400 3653 1551 3751 
Q 1703 3850 1703 4038 
Q 1703 4219 1547 4314 
Q 1391 4409 1094 4409 
Q 969 4409 809 4381 
Q 650 4353 397 4281 
L 397 4641 
Q 625 4694 825 4722 
Q 1025 4750 1197 4750 
Q 1647 4750 1911 4565 
Q 2175 4381 2175 4072 
Q 2175 3856 2034 3706 
Q 1894 3556 1638 3500 
z
" transform="scale(0.015625)"/>
       <path id="DejaVuSans-2f" d="M 1625 4666 
L 2156 4666 
L 531 -594 
L 0 -594 
L 1625 4666 
z
" transform="scale(0.015625)"/>
       <path id="DejaVuSans-73" d="M 2834 3397 
L 2834 2853 
Q 2591 2978 2328 3040 
Q 2066 3103 1784 3103 
Q 1356 3103 1142 2972 
Q 928 2841 928 2578 
Q 928 2378 1081 2264 
Q 1234 2150 1697 2047 
L 1894 2003 
Q 2506 1872 2764 1633 
Q 3022 1394 3022 966 
Q 3022 478 2636 193 
Q 2250 -91 1575 -91 
Q 1294 -91 989 -36 
Q 684 19 347 128 
L 347 722 
Q 666 556 975 473 
Q 1284 391 1588 391 
Q 1994 391 2212 530 
Q 2431 669 2431 922 
Q 2431 1156 2273 1281 
Q 2116 1406 1581 1522 
L 1381 1569 
Q 847 1681 609 1914 
Q 372 2147 372 2553 
Q 372 3047 722 3315 
Q 1072 3584 1716 3584 
Q 2034 3584 2315 3537 
Q 2597 3491 2834 3397 
z
" transform="scale(0.015625)"/>
      </defs>
      <use xlink:href="#DejaVuSans-4f"/>
      <use xlink:href="#DejaVuSans-75" x="78.710938"/>
      <use xlink:href="#DejaVuSans-74" x="142.089844"/>
      <use xlink:href="#DejaVuSans-66" x="181.298828"/>
      <use xlink:href="#DejaVuSans-6c" x="216.503906"/>
      <use xlink:href="#DejaVuSans-6f" x="244.287109"/>
      <use xlink:href="#DejaVuSans-77" x="305.46875"/>
      <use xlink:href="#DejaVuSans-20" x="387.255859"/>
      <use xlink:href="#DejaVuSans-5b" x="419.042969"/>
      <use xlink:href="#DejaVuSans-6d" x="458.056641"/>
      <use xlink:href="#DejaVuSans-b3" x="555.46875"/>
      <use xlink:href="#DejaVuSans-2f" x="595.556641"/>
      <use xlink:href="#DejaVuSans-73" x="629.248047"/>
      <use xlink:href="#DejaVuSans-5d" x="681.347656"/>
     </g>
    </g>
   </g>
   <g id="line2d_49">
    <path d="M 91.527585 242.818318 
L 97.432983 236.69254 
L 103.338381 236.69254 
L 109.243778 230.566762 
L 115.149176 230.566762 
L 121.054574 224.440984 
L 126.959972 224.440984 
L 132.865369 224.440984 
L 138.770767 224.440984 
L 144.676165 224.440984 
L 150.581562 224.440984 
L 156.48696 224.440984 
L 162.392358 230.566762 
L 168.297756 230.566762 
L 174.203153 236.69254 
L 180.108551 236.69254 
L 186.013949 242.818318 
L 191.919347 242.818318 
L 197.824744 242.818318 
L 203.730142 242.818318 
L 209.63554 242.818318 
L 215.540937 236.69254 
L 221.446335 236.69254 
L 227.351733 236.69254 
L 233.257131 242.818318 
L 239.162528 242.818318 
L 245.067926 242.818318 
L 250.973324 242.818318 
L 256.878722 242.818318 
L 262.784119 242.818318 
L 268.689517 242.818318 
L 274.594915 242.818318 
L 280.500312 242.818318 
L 286.40571 242.818318 
L 292.311108 242.818318 
L 298.216506 242.818318 
L 304.121903 242.818318 
L 310.027301 242.818318 
L 315.932699 242.818318 
L 321.838097 242.818318 
L 327.743494 242.818318 
L 333.648892 242.818318 
L 339.55429 242.818318 
L 345.459687 242.818318 
L 351.365085 242.818318 
L 357.270483 242.818318 
L 363.175881 242.818318 
L 369.081278 242.818318 
L 374.986676 242.818318 
L 380.892074 242.818318 
L 386.797472 242.818318 
L 392.702869 242.818318 
L 398.608267 242.818318 
L 404.513665 242.818318 
L 410.419062 242.818318 
L 416.32446 242.818318 
L 422.229858 242.818318 
L 428.135256 242.818318 
L 434.040653 242.818318 
L 439.946051 242.818318 
L 445.851449 242.818318 
L 451.756847 242.818318 
L 457.662244 242.818318 
L 463.567642 242.818318 
L 469.47304 242.818318 
" clip-path="url(#pd53fb4d45f)" style="fill: none; stroke-dasharray: 7.4,3.2; stroke-dashoffset: 0; stroke: #ff0000; stroke-width: 2"/>
   </g>
   <g id="line2d_50">
    <path d="M 91.527585 239.755429 
L 97.432983 233.629651 
L 103.338381 233.629651 
L 109.243778 230.566762 
L 115.149176 230.566762 
L 121.054574 224.440984 
L 126.959972 224.440984 
L 132.865369 218.315207 
L 138.770767 218.315207 
L 144.676165 218.315207 
L 150.581562 224.440984 
L 156.48696 224.440984 
L 162.392358 230.566762 
L 168.297756 236.69254 
L 174.203153 242.818318 
L 180.108551 242.818318 
L 186.013949 242.818318 
L 191.919347 242.818318 
L 197.824744 242.818318 
L 203.730142 242.818318 
L 209.63554 236.69254 
L 215.540937 230.566762 
L 221.446335 230.566762 
L 227.351733 236.69254 
L 233.257131 242.818318 
L 239.162528 242.818318 
L 245.067926 242.818318 
L 250.973324 242.818318 
L 256.878722 242.818318 
L 262.784119 242.818318 
L 268.689517 242.818318 
L 274.594915 242.818318 
L 280.500312 242.818318 
L 286.40571 242.818318 
L 292.311108 242.818318 
L 298.216506 242.818318 
L 304.121903 242.818318 
L 310.027301 242.818318 
L 315.932699 242.818318 
L 321.838097 242.818318 
L 327.743494 242.818318 
L 333.648892 242.818318 
L 339.55429 242.818318 
L 345.459687 242.818318 
L 351.365085 242.818318 
L 357.270483 242.818318 
L 363.175881 242.818318 
L 369.081278 242.818318 
L 374.986676 242.818318 
L 380.892074 242.818318 
L 386.797472 242.818318 
L 392.702869 248.944095 
L 398.608267 248.944095 
L 404.513665 248.944095 
L 410.419062 242.818318 
L 416.32446 242.818318 
L 422.229858 242.818318 
L 428.135256 242.818318 
L 434.040653 242.818318 
L 439.946051 242.818318 
L 445.851449 242.818318 
L 451.756847 242.818318 
L 457.662244 248.944095 
L 463.567642 248.944095 
L 469.47304 248.944095 
" clip-path="url(#pd53fb4d45f)" style="fill: none; stroke-dasharray: 7.4,3.2; stroke-dashoffset: 0; stroke: #000000; stroke-width: 2"/>
   </g>
   <g id="patch_9">
    <path d="M 72.630313 307.138984 
L 72.630313 169.308984 
" style="fill: none; stroke: #000000; stroke-width: 0.8; stroke-linejoin: miter; stroke-linecap: square"/>
   </g>
   <g id="patch_10">
    <path d="M 488.370312 307.138984 
L 488.370312 169.308984 
" style="fill: none; stroke: #000000; stroke-width: 0.8; stroke-linejoin: miter; stroke-linecap: square"/>
   </g>
   <g id="patch_11">
    <path d="M 72.630313 307.138984 
L 488.370312 307.138984 
" style="fill: none; stroke: #000000; stroke-width: 0.8; stroke-linejoin: miter; stroke-linecap: square"/>
   </g>
   <g id="patch_12">
    <path d="M 72.630313 169.308984 
L 488.370312 169.308984 
" style="fill: none; stroke: #000000; stroke-width: 0.8; stroke-linejoin: miter; stroke-linecap: square"/>
   </g>
   <g id="legend_2">
    <g id="patch_13">
     <path d="M 363.778125 302.138984 
L 481.370312 302.138984 
Q 483.370312 302.138984 483.370312 300.138984 
L 483.370312 271.782734 
Q 483.370312 269.782734 481.370312 269.782734 
L 363.778125 269.782734 
Q 361.778125 269.782734 361.778125 271.782734 
L 361.778125 300.138984 
Q 361.778125 302.138984 363.778125 302.138984 
z
" style="fill: #ffffff; opacity: 0.8; stroke: #cccccc; stroke-linejoin: miter"/>
    </g>
    <g id="line2d_51">
     <path d="M 365.778125 277.881172 
L 375.778125 277.881172 
L 385.778125 277.881172 
" style="fill: none; stroke-dasharray: 7.4,3.2; stroke-dashoffset: 0; stroke: #ff0000; stroke-width: 2"/>
    </g>
    <g id="text_21">
     <!-- Optimal Strategy -->
     <g transform="translate(393.778125 281.381172) scale(0.1 -0.1)">
      <use xlink:href="#DejaVuSans-4f"/>
      <use xlink:href="#DejaVuSans-70" x="78.710938"/>
      <use xlink:href="#DejaVuSans-74" x="142.1875"/>
      <use xlink:href="#DejaVuSans-69" x="181.396484"/>
      <use xlink:href="#DejaVuSans-6d" x="209.179688"/>
      <use xlink:href="#DejaVuSans-61" x="306.591797"/>
      <use xlink:href="#DejaVuSans-6c" x="367.871094"/>
      <use xlink:href="#DejaVuSans-20" x="395.654297"/>
      <use xlink:href="#DejaVuSans-53" x="427.441406"/>
      <use xlink:href="#DejaVuSans-74" x="490.917969"/>
      <use xlink:href="#DejaVuSans-72" x="530.126953"/>
      <use xlink:href="#DejaVuSans-61" x="571.240234"/>
      <use xlink:href="#DejaVuSans-74" x="632.519531"/>
      <use xlink:href="#DejaVuSans-65" x="671.728516"/>
      <use xlink:href="#DejaVuSans-67" x="733.251953"/>
      <use xlink:href="#DejaVuSans-79" x="796.728516"/>
     </g>
    </g>
    <g id="line2d_52">
     <path d="M 365.778125 292.559297 
L 375.778125 292.559297 
L 385.778125 292.559297 
" style="fill: none; stroke-dasharray: 7.4,3.2; stroke-dashoffset: 0; stroke: #000000; stroke-width: 2"/>
    </g>
    <g id="text_22">
     <!-- Old Strategy -->
     <g transform="translate(393.778125 296.059297) scale(0.1 -0.1)">
      <use xlink:href="#DejaVuSans-4f"/>
      <use xlink:href="#DejaVuSans-6c" x="78.710938"/>
      <use xlink:href="#DejaVuSans-64" x="106.494141"/>
      <use xlink:href="#DejaVuSans-20" x="169.970703"/>
      <use xlink:href="#DejaVuSans-53" x="201.757812"/>
      <use xlink:href="#DejaVuSans-74" x="265.234375"/>
      <use xlink:href="#DejaVuSans-72" x="304.443359"/>
      <use xlink:href="#DejaVuSans-61" x="345.556641"/>
      <use xlink:href="#DejaVuSans-74" x="406.835938"/>
      <use xlink:href="#DejaVuSans-65" x="446.044922"/>
      <use xlink:href="#DejaVuSans-67" x="507.568359"/>
      <use xlink:href="#DejaVuSans-79" x="571.044922"/>
     </g>
    </g>
   </g>
  </g>
 </g>
 <defs>
  <clipPath id="p730a27eb32">
   <rect x="72.630313" y="12.138984" width="415.74" height="137.83"/>
  </clipPath>
  <clipPath id="pd53fb4d45f">
   <rect x="72.630313" y="169.308984" width="415.74" height="137.83"/>
  </clipPath>
 </defs>
</svg>
